<?xml version="1.0" encoding="UTF-8"?>
<svg id="Layer_1" data-name="Layer 1" xmlns="http://www.w3.org/2000/svg" width="3.39in" height="3.34in" viewBox="0 0 244.44 240.4">
  <path d="M211.23,120.93c9.4-9.24-19.82-19.54-25.38-21.41-39.65-13.34-106.83-14.7-144.07,6.35-6.41,3.62-12.93,7.49-7.1,15.5,9.44,6,37.42-13.76,49.9-10.8,1.64,1.64-5.12,41.04-7.02,45.79-2.96,7.39-24.07.95-30.42-.99C-28.61,132.27-1.89,55.31,49.13,20.98,105.11-16.69,189.52-2.41,227.36,54.01c30.67,45.74,20.6,87.96-34.8,102.38-3.94,1.03-21,5.22-23.13,2.32-1.7-2.31-6.52-27.03-7.14-31.62-2.29-17.05-3.96-19.02,14.54-14.54,7.51,1.82,29.07,13.62,34.4,8.37Z"/>
  <path d="M119.1,105.68c6.33-.35,14.77-.22,20.95.9,2.12.38,2.84,1.07,3.71,2.98,2.43,27.05,9.28,53.03,16.62,78.95,7.24,25.57-11.5,51.58-38.07,51.9-23.31.28-46.25-15.89-39.76-47.01,3.24-15.52,10.22-31.78,13.45-48.02,2.31-11.61,3.61-23.46,4.86-35.24,1.38-4.08,13.98-4.22,18.24-4.46Z"/>
</svg>