<?xml version="1.0" encoding="UTF-8"?>
<svg xmlns="http://www.w3.org/2000/svg" width="13.9in" height="13.9in" version="1.1" viewBox="0 0 1000 1000">
  <!-- Generator: Adobe Illustrator 29.8.3, SVG Export Plug-In . SVG Version: 2.1.1 Build 3)  -->
  <defs>
    <style>
      .st0, .st1 {
        fill: #111;
      }

      .st2 {
        opacity: .9;
      }

      .st2, .st1, .st3, .st4 {
        isolation: isolate;
      }

      .st1 {
        opacity: .2;
      }

      .st5 {
        stroke-width: 14px;
      }

      .st5, .st3, .st4, .st6 {
        fill: none;
        stroke: #111;
      }

      .st3 {
        opacity: .6;
      }

      .st3, .st4 {
        stroke-width: 2px;
      }

      .st7 {
        fill: #fff;
      }

      .st4 {
        opacity: .4;
        stroke-dasharray: 6 6;
      }

      .st6 {
        stroke-linecap: round;
        stroke-width: 6px;
      }
    </style>
  </defs>
  <g id="Layer_1">
    <circle class="st5" cx="500" cy="500" r="460"/>
    <g class="st2">
      <path class="st0" d="M500,179c43.4,0,85.4,8.5,124.9,25.2,38.2,16.2,72.6,39.3,102.1,68.8,29.5,29.5,52.7,63.8,68.8,102.1,16.7,39.5,25.2,81.6,25.2,124.9s-8.5,85.4-25.2,124.9c-16.2,38.2-39.3,72.6-68.8,102.1-29.5,29.5-63.8,52.7-102.1,68.8-39.5,16.7-81.6,25.2-124.9,25.2s-85.4-8.5-124.9-25.2c-38.2-16.2-72.6-39.3-102.1-68.8-29.5-29.5-52.7-63.8-68.8-102.1-16.7-39.5-25.2-81.6-25.2-124.9s8.5-85.4,25.2-124.9c16.2-38.2,39.3-72.6,68.8-102.1,29.5-29.5,63.8-52.7,102.1-68.8,39.5-16.7,81.6-25.2,124.9-25.2M500,100c-220.9,0-400,179.1-400,400s179.1,400,400,400,400-179.1,400-400S720.9,100,500,100h0Z"/>
    </g>
    <circle class="st3" cx="500" cy="500" r="320"/>
    <circle class="st3" cx="500" cy="500" r="250"/>
    <circle class="st3" cx="500" cy="500" r="180"/>
    <line class="st6" x1="500" y1="40" x2="500" y2="80"/>
    <line class="st6" x1="500" y1="920" x2="500" y2="960"/>
    <line class="st6" x1="40" y1="500" x2="80" y2="500"/>
    <line class="st6" x1="920" y1="500" x2="960" y2="500"/>
    <g id="microfiber-field">
      <circle class="st1" cx="420" cy="310" r="3"/>
      <circle class="st1" cx="610" cy="360" r="2"/>
      <circle class="st1" cx="540" cy="470" r="4"/>
      <circle class="st1" cx="460" cy="540" r="2"/>
      <circle class="st1" cx="580" cy="610" r="3"/>
      <circle class="st1" cx="390" cy="590" r="2"/>
      <circle class="st1" cx="650" cy="520" r="3"/>
      <circle class="st1" cx="500" cy="350" r="2"/>
      <circle class="st1" cx="470" cy="650" r="3"/>
      <circle class="st1" cx="600" cy="450" r="2"/>
    </g>
    <g id="qr-cloud-placeholder">
      <circle class="st4" cx="500" cy="500" r="120"/>
    </g>
  </g>
  <g id="text_outline">
    <g>
      <path class="st7" d="M133.2,564.1l2.4,15.6-9.3,1.4-6.8-44.7,9.3-1.4,2.4,15.9,39.8-6.1,2,13.2-39.8,6.1Z"/>
      <path class="st7" d="M119.6,527.8c-.7-4.3-1.3-10.6-1.4-17.7-.2-8.7.8-14.9,3.5-19.1,2.3-3.5,5.7-5.5,10.3-5.6,6.3-.1,10.8,5.1,12.5,10.1h.2c1.3-4.1,4.6-6.5,9.1-8.1,5.6-1.9,12-3.9,13.9-5.1l.3,13.6c-1.4,1-5.4,2.5-11.5,4.3-6.2,1.7-7.8,4.3-7.8,9.7v4c0,0,19.6-.4,19.6-.4l.3,13.2-49.1,1ZM140.8,514.2v-5.2c-.2-6.6-3.1-10.5-7.5-10.4-4.6,0-6.8,3.8-6.7,9.9,0,3.2.3,5.1.5,6l13.7-.3Z"/>
      <path class="st7" d="M120.3,462.5l49.6,4.1-1.1,13.3-49.6-4.1,1.1-13.3Z"/>
      <path class="st7" d="M121.9,451.1c.2-4.1.8-9.9,2.2-17.9,1.5-8.1,3.8-13.6,7.1-17,3.1-3.2,7.7-5,12.5-4.1,4.8.9,8.5,3.5,10.6,7.4,2.7,5.1,3.1,12,1.7,19.8-.3,1.7-.7,3.2-1,4.4l17.5,3.2-2.4,13-48.3-8.8ZM146.4,442.2c.4-1.1.7-2.4,1.1-4.3,1.3-7-.9-11.8-5.9-12.7-4.5-.8-7.9,2.4-9.1,8.9-.5,2.7-.6,4.5-.6,5.5l14.4,2.6Z"/>
      <path class="st7" d="M132.2,398.7c1-4.8,2.7-11,4.9-17.3,3.7-10.6,7.6-16.8,12.9-21,5.6-4.5,12.7-6.1,21-3.2,9,3.1,13.9,9.2,15.8,15.8,2.1,7.3.9,16.9-2.8,27.8-2.3,6.5-4.2,11-5.7,14l-46.2-16ZM174.9,399.4c.6-1,1.2-2.7,1.7-4.3,4-11.4,1.3-20.6-9.9-24.5-9.7-3.5-17.2,1.5-21,12.3-1,2.8-1.4,4.7-1.6,5.8l30.7,10.7Z"/>
      <path class="st7" d="M192.2,345.3l9.3,9.7-6.5,12.1-35.3-39.4,8.3-15.4,52.4,7.5-6.8,12.6-13.4-2.1-8,14.8ZM191.9,328.2l-11-1.8c-3.1-.5-6.8-1.3-9.9-1.9v.2c2.1,2.2,5,4.7,7.1,6.9l7.6,8.1,6.2-11.5Z"/>
      <path class="st7" d="M183.1,288.2c2.1-3.8,5.6-9.1,9.8-14.8,5.2-7,9.8-11.2,14.5-12.9,4-1.4,7.9-.8,11.6,1.9,5.1,3.8,5.4,10.7,3.6,15.7h.2c3.6-2.3,7.6-2.1,12.2-.6,5.6,1.9,11.9,4.3,14.1,4.6l-8.2,10.9c-1.7,0-5.8-1.4-11.7-3.7-5.9-2.5-8.8-1.4-12.1,2.8l-2.4,3.2,15.7,11.7-7.9,10.6-39.3-29.4ZM208.2,290.5l3.1-4.2c4-5.3,4.1-10.1.6-12.7-3.7-2.7-7.7-1.2-11.4,3.7-1.9,2.6-2.9,4.2-3.3,5l11,8.2Z"/>
      <path class="st7" d="M228.1,232.6l3.5,3.5-4.8,4.8,10.7,10.8-5.1,5.1-10.7-10.8-4.8,4.7-3.5-3.5,14.8-14.6ZM260.5,228.9l-6.5-6c-1.6-1.5-3.3-3.4-5.6-5.5l-.3.3c1.4,2.4,3,5,4.1,7l4.2,7.7-4.9,4.9-7.6-4.5c-1.6-1.1-4.3-2.9-6.5-4.5l-.3.3c1.9,1.9,3.8,4,5.4,5.7l5.9,6.7-4.8,4.8-13.1-15.4,7.9-7.9,4.6,2.4c1.4.8,2.8,1.7,5.6,3.6h0c-1.3-2.3-2.4-4.1-3.3-5.9l-2.2-4.7,7.4-7.3,15.1,13.4-5,4.9Z"/>
      <path class="st7" d="M338.5,185.8l-18.7,10.9,5.9,10.2,20.9-12.2,4.6,8-32.4,18.9-25-43,31.4-18.3,4.6,8-19.8,11.5,5.2,8.9,18.7-10.9,4.6,7.9Z"/>
      <path class="st7" d="M383.7,189l-8.4-6.3c-3.3-2.4-5.6-4.2-8.2-6.3h-.2c0,3.2-.4,6.1-.8,10.1l-1.1,10.2-14,5.8,6.2-29.8-24.5-16.5,14.1-5.8,8.2,6.4c2.8,2.1,4.9,3.9,7.3,5.9h.2c0-3.5.3-6,.6-9.2l1.1-10.3,14-5.8-6.1,28.8,25.8,16.9-14.2,5.9Z"/>
      <path class="st7" d="M388.2,135.2c3.8-1.6,9.3-3.4,17.2-5.4,8-2,14-2.2,18.4-.6,4.3,1.5,7.7,4.9,8.9,9.6,1.2,4.7.3,9.2-2.4,12.8-3.5,4.6-9.6,7.8-17.2,9.8-1.7.4-3.2.7-4.5.9l4.4,17.2-12.8,3.2-12-47.6ZM406.5,153.9c1.2,0,2.5-.3,4.4-.8,6.9-1.7,10.3-5.7,9.1-10.7-1.1-4.4-5.4-6.2-11.9-4.5-2.6.7-4.3,1.3-5.2,1.8l3.6,14.2Z"/>
      <path class="st7" d="M477.2,147.2l-21.5,2.5,1.4,11.7,24-2.8,1.1,9.2-37.3,4.3-5.8-49.4,36.1-4.2,1.1,9.2-22.8,2.7,1.2,10.3,21.5-2.5,1.1,9.1Z"/>
      <path class="st7" d="M487.1,118.5c4.3-.5,10.7-.9,17.7-.8,8.7.1,14.8,1.3,19,4.2,3.5,2.4,5.3,5.9,5.2,10.5,0,6.3-5.5,10.6-10.6,12.1v.2c4.1,1.5,6.3,4.8,7.7,9.4,1.7,5.6,3.5,12.2,4.6,14.1l-13.6-.2c-.9-1.4-2.3-5.5-3.9-11.6-1.5-6.2-4-8-9.4-8.1h-4c0,0-.3,19.5-.3,19.5l-13.2-.2.8-49.1ZM500,140.1h5.2c6.6.2,10.6-2.6,10.7-6.9,0-4.6-3.6-6.9-9.7-7.1-3.2,0-5.1.1-6,.3l-.2,13.7Z"/>
      <path class="st7" d="M552.2,121.4l-5.7,49.4-13.3-1.5,5.7-49.4,13.3,1.5Z"/>
      <path class="st7" d="M591.7,158l-21.2-4.5-2.4,11.6,23.7,5-1.9,9-36.7-7.7,10.3-48.7,35.5,7.5-1.9,9-22.5-4.7-2.1,10.1,21.2,4.5-1.9,9Z"/>
      <path class="st7" d="M594,180l17.3-46.6,14.6,5.4,5.1,21.3c1.5,6.1,2.6,13.2,3.1,19.3h.2c1.5-6.4,3.5-12.8,6.1-19.7l5-13.6,11.5,4.2-17.3,46.6-13.1-4.8-5.1-22.4c-1.4-6.2-2.8-13.5-3.5-20h-.3c-2,6.3-4.2,12.9-7,20.5l-5.2,14-11.5-4.2Z"/>
      <path class="st7" d="M684.1,219.8c-2.6-.3-8-2-14.2-5.5-17.8-9.9-21.7-24.4-14.8-36.7,8.3-14.8,25.4-16.1,40.9-7.4,6,3.4,10,6.9,11.6,9l-6.7,6.5c-1.9-2.2-4.7-4.8-8.9-7.1-9.2-5.1-19-4.4-24.4,5.2-4.9,8.7-1.8,17.6,8.6,23.4,3.5,2,7.8,3.5,10.5,4l-2.5,8.6Z"/>
      <path class="st7" d="M727.1,227.6l-17.3-13-7.1,9.5,19.4,14.5-5.5,7.4-30.1-22.5,29.8-39.8,29.1,21.8-5.5,7.4-18.4-13.8-6.2,8.3,17.3,13-5.5,7.3Z"/>
      <path class="st7" d="M753.7,283.6l26.5-46.1,9.2,11.3-11.7,18.9c-3.3,5.3-6.5,10.3-10.4,15.3l.2.2c5.6-2.6,11.3-5,17-7l21.2-7.7,9,10.9-51,16.2-9.9-12Z"/>
      <path class="st7" d="M812.7,331.4l-11.3-18.5-10.1,6.2,12.6,20.6-7.9,4.8-19.6-32,42.4-25.9,18.9,31-7.9,4.8-12-19.6-8.8,5.4,11.3,18.5-7.8,4.8Z"/>
      <path class="st7" d="M842.9,328.5c2.3,3.7,5.2,9.3,8.1,15.8,3.5,8,5,14,4.1,19-.8,4.1-3.2,7.3-7.3,9.1-5.8,2.6-11.9-.6-15.4-4.6h-.2c.4,4.4-1.8,7.8-5.3,11-4.4,3.9-9.6,8.2-10.9,10l-5.5-12.5c.9-1.4,4-4.4,8.9-8.4,5-3.9,5.6-6.9,3.5-11.9l-1.6-3.7-17.9,7.9-5.3-12.1,44.9-19.8ZM828.6,349.2l2.1,4.8c2.7,6.1,6.8,8.5,10.8,6.8,4.2-1.8,4.8-6.1,2.4-11.7-1.3-3-2.2-4.5-2.8-5.4l-12.6,5.5Z"/>
      <path class="st7" d="M867.4,388.9l-47.3,15.4-4.1-12.7,47.3-15.4,4.1,12.7Z"/>
      <path class="st7" d="M870.8,399.6l7.9,35.1-9,2-5-22.1-11.1,2.5,4.6,20.6-8.9,2-4.6-20.6-19.5,4.4-2.9-13,48.5-10.9Z"/>
      <path class="st7" d="M881.6,457.5l-49.3,6.4-1.7-13.2,49.3-6.4,1.7,13.2Z"/>
      <path class="st7" d="M855.7,504.7l-.8-21.6-11.8.4.9,24.2-9.2.3-1.4-37.5,49.7-1.9,1.4,36.3-9.2.3-.9-22.9-10.3.4.8,21.6-9.1.3Z"/>
      <path class="st7" d="M883.7,517.6c.1,4.9-.2,11.3-.9,18-1.2,11.1-3.7,18.1-7.9,23.4-4.5,5.7-11,8.8-19.7,7.9-9.5-1-15.6-5.8-19-11.9-3.7-6.6-4.7-16.2-3.5-27.7.7-6.9,1.6-11.7,2.3-14.9l48.6,5.2ZM842,526.5c-.3,1.1-.5,2.9-.7,4.6-1.4,12,3.4,20.4,15.2,21.7,10.3,1.2,16.5-5.3,17.7-16.7.3-3,.3-4.9.2-6l-32.4-3.5Z"/>
    </g>
    <g>
      <path class="st7" d="M161.4,652.1c.2,3.3,1.1,8,3.3,12.3,2.3,4.6,5.1,6.3,7.4,5.1,2.3-1.1,2.5-3.9,1.4-10-1.6-8.4-.6-14.9,4.6-17.5,6.2-3.1,14.1.9,19.3,11.4,2.5,5,3.5,9.1,3.8,12.3l-7.7,1c-.2-2.1-.7-5.8-2.9-10.2-2.2-4.4-4.8-5.7-6.7-4.7-2.3,1.1-2.1,4.2-1,10.8,1.5,9,0,14.4-5.1,16.9-6.1,3-14.1-.2-20.2-12.4-2.5-5.1-3.9-10.6-4.1-13.7l7.8-1.3Z"/>
      <path class="st7" d="M193,723.6c-1.8-1.3-5.1-4.7-8.4-9.7-9.4-14.4-6.9-26.6,2.7-32.9,11.6-7.5,24.6-1.6,32.8,11,3.2,4.9,4.8,9.1,5.2,11.2l-7.3,2.1c-.6-2.3-1.7-5.4-3.9-8.7-4.9-7.5-12.3-10.9-19.9-6-6.8,4.4-7.8,12.2-2.4,20.6,1.9,2.8,4.4,5.7,6.2,7.1l-5.1,5.3Z"/>
      <path class="st7" d="M214.7,735.8l-10.2,4.1-7.6-8.8,40.6-14.9,9.6,11.2-20.6,38.1-7.9-9.2,5.4-9.7-9.3-10.8ZM228.1,740.9l4.5-7.9c1.2-2.2,2.9-4.9,4.3-7h0c-2.3.9-5.1,2.3-7.4,3.2l-8.4,3.4,7.2,8.3Z"/>
      <path class="st7" d="M234.6,773.4l26.6-30.5,9.9,8.6-2,18c-.6,5.2-1.7,10.9-3,15.8h.2c3-4.4,6.4-8.6,10.4-13.2l7.8-8.9,7.8,6.8-26.6,30.5-8.9-7.8,2.3-18.7c.6-5.2,1.6-11.3,2.9-16.4h-.2c-3.3,4.1-6.9,8.5-11.3,13.5l-8,9.2-7.8-6.8Z"/>
      <path class="st7" d="M314.5,794.2l-11.4-6.9,4-6.6,32.6,19.8-4,6.6-11.6-7-17,28-9.6-5.9,17-28Z"/>
      <path class="st7" d="M374.9,838.3c-5.4,12.1-17.7,15.4-31,9.5-13.5-6-17.6-17.8-13-28.3,4.9-11.1,17.3-15.5,30.7-9.5,13.9,6.2,17.8,18.1,13.2,28.3ZM341.9,824.1c-3.2,7.2-1.3,14.2,5.5,17.3,6.9,3.1,13.3-.5,16.5-7.7,3-6.6,1.6-14.1-5.5-17.2-6.9-3.1-13.4.5-16.6,7.7Z"/>
      <path class="st7" d="M404.8,868.4l-6.2-43,12,2.8,1.9,18c.5,5.1,1,9.9,1,15.1h.2c2.3-4.4,5-8.7,7.7-12.8l10.2-15.4,11.6,2.7-25.6,35.5-12.8-3Z"/>
      <path class="st7" d="M473.2,862.5l-18.2-2-1.1,9.5,20.3,2.3-.8,7.5-31.5-3.5,4.5-40.2,30.5,3.4-.8,7.5-19.3-2.2-.9,8.4,18.2,2-.8,7.4Z"/>
      <path class="st7" d="M483.3,840.3c3.6-.5,9-.9,15-.9,7.4,0,12.5.9,16.1,3.1,3,1.9,4.6,4.7,4.6,8.5,0,5.2-4.5,8.7-8.7,10v.2c3.5,1.1,5.4,3.8,6.7,7.5,1.6,4.6,3.1,9.8,4.1,11.4h-11.5c-.8-1.1-2-4.4-3.5-9.4-1.3-5-3.5-6.4-8.1-6.5h-3.4s0,15.9,0,15.9h-11.1s0-39.9,0-39.9ZM494.4,857.7h4.4c5.6,0,8.9-2.3,8.9-5.9,0-3.7-3.1-5.6-8.3-5.6-2.7,0-4.3.2-5.1.3v11.2Z"/>
      <path class="st7" d="M534.6,838l3.5,40.3-11.2,1-3.5-40.3,11.2-1Z"/>
      <path class="st7" d="M540.3,837.6l30-5,1.2,7.4-18.8,3.1,1.5,9.1,17.6-2.9,1.2,7.3-17.6,2.9,2.7,16.1-11.1,1.8-6.6-39.9Z"/>
      <path class="st7" d="M598.7,867l-4.6-15.9-21.7-18.6,12.3-3.6,7.6,7.9c2.3,2.4,3.9,4.2,5.8,6.4h.1c.4-2.8.8-5.3,1.5-8.5l2.1-10.7,12.1-3.5-9.2,27.2,4.7,16.2-10.8,3.1Z"/>
      <path class="st7" d="M633.5,813c3-2,7.7-4.7,13.1-7.4,6.6-3.3,11.6-4.7,15.8-4.3,3.5.4,6.2,2.2,7.8,5.6,2.3,4.6-.2,9.8-3.5,12.8v.2c3.7-.5,6.6,1.1,9.4,3.9,3.4,3.4,7.1,7.5,8.7,8.4l-10.3,5.1c-1.2-.7-3.7-3.1-7.3-6.9-3.4-3.9-5.9-4.2-10.1-2.3l-3,1.5,7,14.3-10,4.9-17.6-35.8ZM651.2,823.7l4-2c5-2.5,7-6,5.4-9.2-1.6-3.3-5.2-3.6-9.9-1.4-2.4,1.2-3.8,2.1-4.4,2.5l4.9,10Z"/>
      <path class="st7" d="M707.7,797.3l-15.4,9.9,5.2,8.1,17.2-11.1,4.1,6.3-26.6,17.2-22-34,25.8-16.6,4.1,6.3-16.3,10.5,4.6,7.1,15.4-9.9,4,6.3Z"/>
      <path class="st7" d="M754.4,780.5c-1.1,2-4.1,5.6-8.7,9.5-13.3,10.9-25.6,9.8-32.9.9-8.8-10.7-4.3-24.3,7.3-33.8,4.5-3.7,8.5-5.8,10.6-6.4l2.9,7.1c-2.3.9-5.2,2.3-8.2,4.8-6.9,5.7-9.4,13.5-3.7,20.4,5.2,6.3,12.9,6.4,20.7,0,2.6-2.2,5.1-5,6.4-7l5.9,4.4Z"/>
      <path class="st7" d="M777.6,728.1c9.7,9.1,8.8,21.8-1.1,32.4-10.1,10.8-22.6,10.9-31,3-8.9-8.3-9-21.4,1-32.1,10.4-11.2,22.9-10.9,31.1-3.3ZM753.5,754.7c5.8,5.4,13,5.9,18.1.4,5.2-5.6,3.8-12.7-1.9-18.1-5.3-5-12.8-6.1-18.1-.4-5.2,5.6-3.9,12.8,1.9,18.2Z"/>
      <path class="st7" d="M767,709.8c1.7-3.2,4.5-7.8,7.9-12.7,4.2-6,7.9-9.7,11.8-11.3,3.3-1.3,6.5-1,9.6,1.1,4.2,3,4.5,8.7,3.1,12.9h.1c2.9-2.1,6.2-2.1,10-1,4.6,1.4,9.8,3.1,11.7,3.2l-6.6,9.4c-1.4,0-4.8-.9-9.7-2.6-4.9-1.8-7.2-.9-9.9,2.8l-1.9,2.8,13,9.1-6.4,9.1-32.7-23ZM787.7,710.7l2.5-3.6c3.2-4.6,3.3-8.6.4-10.6-3-2.1-6.3-.7-9.4,3.5-1.6,2.2-2.3,3.6-2.7,4.3l9.1,6.4Z"/>
      <path class="st7" d="M791.2,674.8c1.4-3.9,3.6-8.8,6.2-13.9,4.3-8.4,8.3-13.2,13.2-16.1,5.1-3.2,11.1-3.8,17.4-.5,6.9,3.5,10,9.1,10.8,14.8.8,6.3-1.4,14.1-5.9,22.8-2.7,5.2-4.8,8.7-6.4,11.1l-35.3-18.2ZM825.7,679.9c.6-.8,1.3-2.1,1.9-3.4,4.7-9,3.7-17-4.9-21.4-7.4-3.9-14.2-.6-18.6,8-1.1,2.2-1.7,3.8-2,4.7l23.5,12.1Z"/>
    </g>
  </g>
</svg>