<?xml version="1.0" encoding="UTF-8"?><svg id="Layer_1" xmlns="http://www.w3.org/2000/svg" viewBox="0 0 569.03 726.78"><g id="hagfmR"><path d="M0,690.04V34.95C0,16.37,20.23.06,37.85.05L530.11,0c19.05,0,38.64,16.11,38.65,36.63l.28,653.81c-2.87,17.09-16.03,36.26-35.14,36.26l-497.81.08c-20.05,0-33.21-19.24-36.08-36.73ZM449.66,626.22c63.32-3.96,112.27-57.07,111.25-120.07l-.04-356.3-441.85-.05c-62.82,4.16-111.05,56.22-111.01,119.1l.25,357.32h441.4Z"/></g><g isolation="isolate"><path d="M48.85,61.12h-15.15l-2.1,7.13h-13.62l16.23-43.18h14.56l16.23,43.18h-13.97l-2.16-7.13ZM46.08,51.79l-4.77-15.52-4.72,15.52h9.48Z" fill="#fff"/><path d="M97.74,25.07h13.31v25.73c0,2.55-.4,4.96-1.19,7.23s-2.04,4.25-3.74,5.95c-1.7,1.7-3.48,2.89-5.35,3.58-2.59.96-5.71,1.44-9.34,1.44-2.1,0-4.39-.15-6.88-.44-2.48-.29-4.56-.88-6.23-1.75-1.67-.87-3.2-2.11-4.58-3.72-1.38-1.61-2.33-3.27-2.84-4.98-.82-2.75-1.24-5.18-1.24-7.3v-25.73h13.31v26.34c0,2.35.65,4.19,1.96,5.52,1.31,1.32,3.12,1.99,5.44,1.99s4.1-.65,5.41-1.96c1.31-1.31,1.96-3.15,1.96-5.55v-26.34Z" fill="#fff"/><path d="M119.33,25.07h40.56v10.66h-13.61v32.52h-13.34v-32.52h-13.61v-10.66Z" fill="#fff"/><path d="M168.46,25.07h13.34v15.11h14.58v-15.11h13.4v43.18h-13.4v-17.47h-14.58v17.47h-13.34V25.07Z" fill="#fff"/><path d="M221.1,25.07h35.76v9.22h-22.39v6.86h20.77v8.81h-20.77v8.51h23.04v9.78h-36.41V25.07Z" fill="#fff"/><path d="M267.26,25.07h12.46l16.26,23.89v-23.89h12.58v43.18h-12.58l-16.17-23.71v23.71h-12.55V25.07Z" fill="#fff"/><path d="M316.87,25.07h40.56v10.66h-13.61v32.52h-13.34v-32.52h-13.61v-10.66Z" fill="#fff"/><path d="M366.47,25.07h13.37v43.18h-13.37V25.07Z" fill="#fff"/><path d="M420.64,50.58l11.69,3.53c-.79,3.28-2.02,6.02-3.71,8.22-1.69,2.2-3.79,3.86-6.29,4.98-2.5,1.12-5.69,1.68-9.56,1.68-4.69,0-8.53-.68-11.5-2.05s-5.54-3.76-7.7-7.2-3.24-7.83-3.24-13.19c0-7.14,1.9-12.63,5.7-16.47,3.8-3.84,9.18-5.76,16.13-5.76,5.44,0,9.72,1.1,12.83,3.3,3.11,2.2,5.42,5.58,6.94,10.13l-11.78,2.62c-.41-1.32-.84-2.28-1.3-2.89-.75-1.02-1.66-1.81-2.74-2.36-1.08-.55-2.29-.83-3.62-.83-3.02,0-5.34,1.22-6.95,3.65-1.22,1.8-1.83,4.64-1.83,8.5,0,4.79.73,8.07,2.18,9.84,1.45,1.78,3.5,2.66,6.13,2.66s4.48-.72,5.79-2.15c1.31-1.43,2.25-3.51,2.84-6.24Z" fill="#fff"/><path d="M441.82,25.07h13.37v43.18h-13.37V25.07Z" fill="#fff"/><path d="M464.21,25.07h40.56v10.66h-13.61v32.52h-13.34v-32.52h-13.61v-10.66Z" fill="#fff"/><path d="M508.92,25.07h14.82l8.7,14.57,8.72-14.57h14.74l-16.79,25.1v18.09h-13.37v-18.09l-16.82-25.1Z" fill="#fff"/></g><g isolation="isolate"><path d="M196.23,109.23l11.69,3.53c-.79,3.28-2.02,6.02-3.71,8.22-1.69,2.2-3.79,3.86-6.29,4.98-2.5,1.12-5.69,1.68-9.56,1.68-4.69,0-8.53-.68-11.5-2.05s-5.54-3.76-7.7-7.2c-2.16-3.43-3.24-7.83-3.24-13.19,0-7.14,1.9-12.63,5.7-16.47,3.8-3.84,9.18-5.76,16.13-5.76,5.44,0,9.72,1.1,12.83,3.3,3.11,2.2,5.42,5.58,6.94,10.13l-11.78,2.62c-.41-1.32-.84-2.28-1.3-2.89-.75-1.02-1.66-1.81-2.74-2.36-1.08-.55-2.29-.83-3.62-.83-3.02,0-5.34,1.22-6.95,3.65-1.22,1.8-1.83,4.64-1.83,8.5,0,4.79.73,8.07,2.18,9.84,1.45,1.78,3.5,2.66,6.13,2.66s4.48-.72,5.79-2.15c1.31-1.43,2.25-3.51,2.84-6.24Z" fill="#fff"/><path d="M216.94,83.72h13.34v15.11h14.58v-15.11h13.4v43.18h-13.4v-17.47h-14.58v17.47h-13.34v-43.18Z" fill="#fff"/><path d="M269.58,83.72h35.76v9.22h-22.39v6.86h20.77v8.81h-20.77v8.51h23.04v9.78h-36.41v-43.18Z" fill="#fff"/><path d="M344.4,109.23l11.69,3.53c-.79,3.28-2.02,6.02-3.71,8.22-1.69,2.2-3.79,3.86-6.29,4.98-2.5,1.12-5.69,1.68-9.56,1.68-4.69,0-8.53-.68-11.5-2.05s-5.54-3.76-7.7-7.2-3.24-7.83-3.24-13.19c0-7.14,1.9-12.63,5.7-16.47,3.8-3.84,9.18-5.76,16.13-5.76,5.44,0,9.72,1.1,12.83,3.3,3.11,2.2,5.42,5.58,6.94,10.13l-11.78,2.62c-.41-1.32-.84-2.28-1.3-2.89-.75-1.02-1.66-1.81-2.74-2.36-1.08-.55-2.29-.83-3.62-.83-3.02,0-5.34,1.22-6.95,3.65-1.22,1.8-1.83,4.64-1.83,8.5,0,4.79.73,8.07,2.18,9.84,1.45,1.78,3.5,2.66,6.13,2.66s4.48-.72,5.79-2.15c1.31-1.43,2.25-3.51,2.84-6.24Z" fill="#fff"/><path d="M365.11,83.72h13.34v16.32l13.98-16.32h17.75l-15.76,16.3,16.47,26.88h-16.43l-9.11-17.76-6.89,7.22v10.54h-13.34v-43.18Z" fill="#fff"/></g><g id="qr-placeholder"><rect x="75.69" y="180.58" width="420" height="420" fill="#fff"/></g><g isolation="isolate"><path d="M47.6,692.44c1.99,0,3.6-.22,4.84-.66,2.35-.84,3.53-2.4,3.53-4.68,0-1.33-.58-2.36-1.75-3.09-1.17-.71-3-1.34-5.5-1.89l-4.27-.96c-4.19-.95-7.09-1.98-8.7-3.09-2.72-1.86-4.07-4.77-4.07-8.72,0-3.61,1.31-6.61,3.94-9,2.62-2.39,6.48-3.58,11.57-3.58,4.25,0,7.87,1.13,10.87,3.38,3,2.25,4.57,5.52,4.72,9.8h-8.09c-.15-2.42-1.2-4.15-3.17-5.17-1.31-.67-2.94-1.01-4.89-1.01-2.17,0-3.9.44-5.2,1.31-1.29.88-1.94,2.1-1.94,3.66,0,1.44.64,2.52,1.91,3.23.82.47,2.57,1.03,5.25,1.67l6.95,1.67c3.04.73,5.34,1.71,6.89,2.93,2.41,1.9,3.61,4.64,3.61,8.23s-1.41,6.74-4.22,9.17-6.79,3.65-11.94,3.65-9.38-1.2-12.39-3.6c-3.01-2.4-4.51-5.69-4.51-9.88h8.04c.25,1.84.76,3.22,1.5,4.13,1.37,1.66,3.71,2.49,7.03,2.49Z" fill="#fff"/><path d="M104.75,695.26c-3.01,2.75-6.85,4.13-11.54,4.13-5.8,0-10.35-1.86-13.67-5.58-3.32-3.74-4.98-8.86-4.98-15.37,0-7.04,1.89-12.46,5.66-16.27,3.28-3.32,7.46-4.98,12.52-4.98,6.78,0,11.74,2.22,14.88,6.67,1.73,2.5,2.66,5,2.79,7.52h-8.42c-.55-1.93-1.25-3.39-2.11-4.38-1.53-1.75-3.8-2.62-6.81-2.62s-5.48,1.24-7.25,3.71c-1.77,2.47-2.65,5.97-2.65,10.49s.93,7.91,2.8,10.16c1.87,2.25,4.24,3.38,7.12,3.38s5.2-.97,6.75-2.9c.86-1.04,1.57-2.6,2.13-4.68h8.34c-.73,4.39-2.59,7.97-5.58,10.72Z" fill="#fff"/><path d="M146.34,689.98h-14.85l-2.79,8.29h-8.8l14.38-40.3h9.52l14.27,40.3h-9.13l-2.6-8.29ZM143.99,683.04l-5.03-15.86-5.2,15.86h10.23Z" fill="#fff"/><path d="M201.77,698.27h-8.42l-16.46-28.63v28.63h-7.85v-40.3h8.83l16.05,28.14v-28.14h7.85v40.3Z" fill="#fff"/><path d="M265.74,665.1h-20.21v9.27h17.69v7h-17.69v16.9h-8.37v-40.25h28.57v7.08Z" fill="#fff"/><path d="M295.19,699.39c-5.76,0-10.16-1.57-13.21-4.7-4.08-3.85-6.12-9.39-6.12-16.62s2.04-12.92,6.12-16.62c3.04-3.13,7.45-4.7,13.21-4.7s10.16,1.57,13.21,4.7c4.07,3.7,6.1,9.24,6.1,16.62s-2.03,12.78-6.1,16.62c-3.04,3.14-7.45,4.7-13.21,4.7ZM303.15,688.56c1.95-2.46,2.93-5.96,2.93-10.5s-.98-8.02-2.94-10.49c-1.96-2.47-4.61-3.71-7.94-3.71s-6,1.23-7.98,3.69-2.98,5.96-2.98,10.5.99,8.04,2.98,10.5,4.65,3.69,7.98,3.69,5.99-1.23,7.96-3.69Z" fill="#fff"/><path d="M344.03,682.46h-8.7v15.8h-8.23v-40.3h19.77c2.83.05,5,.4,6.52,1.04,1.52.64,2.81,1.58,3.87,2.82.88,1.02,1.57,2.15,2.08,3.39.51,1.24.77,2.65.77,4.24,0,1.91-.48,3.8-1.45,5.65-.97,1.85-2.56,3.16-4.79,3.92,1.86.75,3.18,1.81,3.95,3.19.78,1.38,1.16,3.48,1.16,6.3v2.71c0,1.84.07,3.09.22,3.75.22,1.04.73,1.8,1.53,2.3v1.01h-9.27c-.26-.89-.44-1.61-.55-2.16-.22-1.13-.34-2.29-.36-3.47l-.05-3.75c-.04-2.57-.51-4.28-1.41-5.14-.9-.86-2.59-1.29-5.07-1.29ZM349.14,675.13c1.68-.77,2.52-2.28,2.52-4.54,0-2.44-.81-4.08-2.43-4.92-.91-.47-2.28-.71-4.1-.71h-9.79v10.83h9.54c1.9,0,3.32-.22,4.27-.66Z" fill="#fff"/><path d="M394.24,657.96h8.37v40.3h-8.37v-40.3Z" fill="#fff"/><path d="M449.04,698.27h-8.42l-16.46-28.63v28.63h-7.85v-40.3h8.83l16.05,28.14v-28.14h7.85v40.3Z" fill="#fff"/><path d="M491.46,665.1h-20.21v9.27h17.69v7h-17.69v16.9h-8.37v-40.25h28.57v7.08Z" fill="#fff"/><path d="M520.91,699.39c-5.76,0-10.16-1.57-13.21-4.7-4.08-3.85-6.12-9.39-6.12-16.62s2.04-12.92,6.12-16.62c3.04-3.13,7.45-4.7,13.21-4.7s10.16,1.57,13.21,4.7c4.06,3.7,6.1,9.24,6.1,16.62s-2.03,12.78-6.1,16.62c-3.04,3.14-7.45,4.7-13.21,4.7ZM528.87,688.56c1.95-2.46,2.93-5.96,2.93-10.5s-.98-8.02-2.94-10.49c-1.96-2.47-4.61-3.71-7.94-3.71s-6,1.23-7.98,3.69c-1.99,2.46-2.98,5.96-2.98,10.5s.99,8.04,2.98,10.5c1.99,2.46,4.65,3.69,7.98,3.69s5.99-1.23,7.96-3.69Z" fill="#fff"/></g></svg>